<mxfile host="app.diagrams.net" modified="2020-06-09T08:28:48.668Z" agent="5.0 (Macintosh; Intel Mac OS X 10_15_4) AppleWebKit/537.36 (KHTML, like Gecko) Chrome/83.0.4103.61 Safari/537.36" etag="MIc9uHh0GTUBI36me4cM" version="13.1.14" type="github">
  <diagram id="y-l5yh-d5uoULhZ4m72S" name="Page-1">
    <mxGraphModel dx="946" dy="591" grid="1" gridSize="10" guides="1" tooltips="1" connect="1" arrows="1" fold="1" page="1" pageScale="1" pageWidth="827" pageHeight="1169" math="0" shadow="0">
      <root>
        <mxCell id="0" />
        <mxCell id="1" parent="0" />
        <mxCell id="B7ZY8b4g0gwFOXaOrZe4-15" value="" style="edgeStyle=orthogonalEdgeStyle;rounded=0;orthogonalLoop=1;jettySize=auto;html=1;" parent="1" source="B7ZY8b4g0gwFOXaOrZe4-1" target="B7ZY8b4g0gwFOXaOrZe4-2" edge="1">
          <mxGeometry relative="1" as="geometry" />
        </mxCell>
        <mxCell id="9xW25eaP4nGq-43hAQE9-2" style="edgeStyle=orthogonalEdgeStyle;rounded=0;orthogonalLoop=1;jettySize=auto;html=1;entryX=0;entryY=0.5;entryDx=0;entryDy=0;" edge="1" parent="1" source="B7ZY8b4g0gwFOXaOrZe4-1" target="9xW25eaP4nGq-43hAQE9-1">
          <mxGeometry relative="1" as="geometry" />
        </mxCell>
        <mxCell id="B7ZY8b4g0gwFOXaOrZe4-1" value="学生" style="shape=umlActor;verticalLabelPosition=bottom;labelBackgroundColor=#ffffff;verticalAlign=top;html=1;" parent="1" vertex="1">
          <mxGeometry x="50" y="5" width="30" height="60" as="geometry" />
        </mxCell>
        <mxCell id="B7ZY8b4g0gwFOXaOrZe4-25" value="" style="edgeStyle=orthogonalEdgeStyle;rounded=0;orthogonalLoop=1;jettySize=auto;html=1;" parent="1" source="B7ZY8b4g0gwFOXaOrZe4-3" target="B7ZY8b4g0gwFOXaOrZe4-22" edge="1">
          <mxGeometry relative="1" as="geometry" />
        </mxCell>
        <mxCell id="B7ZY8b4g0gwFOXaOrZe4-26" style="edgeStyle=orthogonalEdgeStyle;rounded=0;orthogonalLoop=1;jettySize=auto;html=1;entryX=0;entryY=0.5;entryDx=0;entryDy=0;" parent="1" source="B7ZY8b4g0gwFOXaOrZe4-3" target="B7ZY8b4g0gwFOXaOrZe4-11" edge="1">
          <mxGeometry relative="1" as="geometry" />
        </mxCell>
        <mxCell id="B7ZY8b4g0gwFOXaOrZe4-3" value="收款机" style="shape=umlActor;verticalLabelPosition=bottom;labelBackgroundColor=#ffffff;verticalAlign=top;html=1;" parent="1" vertex="1">
          <mxGeometry x="50" y="175" width="30" height="60" as="geometry" />
        </mxCell>
        <mxCell id="B7ZY8b4g0gwFOXaOrZe4-18" value="" style="edgeStyle=orthogonalEdgeStyle;rounded=0;orthogonalLoop=1;jettySize=auto;html=1;" parent="1" source="B7ZY8b4g0gwFOXaOrZe4-5" target="B7ZY8b4g0gwFOXaOrZe4-17" edge="1">
          <mxGeometry relative="1" as="geometry" />
        </mxCell>
        <mxCell id="B7ZY8b4g0gwFOXaOrZe4-20" style="edgeStyle=orthogonalEdgeStyle;rounded=0;orthogonalLoop=1;jettySize=auto;html=1;" parent="1" source="B7ZY8b4g0gwFOXaOrZe4-5" target="B7ZY8b4g0gwFOXaOrZe4-19" edge="1">
          <mxGeometry relative="1" as="geometry" />
        </mxCell>
        <mxCell id="B7ZY8b4g0gwFOXaOrZe4-5" value="管理员" style="shape=umlActor;verticalLabelPosition=bottom;labelBackgroundColor=#ffffff;verticalAlign=top;html=1;" parent="1" vertex="1">
          <mxGeometry x="50" y="410" width="30" height="60" as="geometry" />
        </mxCell>
        <mxCell id="B7ZY8b4g0gwFOXaOrZe4-2" value="注册" style="ellipse;whiteSpace=wrap;html=1;" parent="1" vertex="1">
          <mxGeometry x="150" width="140" height="70" as="geometry" />
        </mxCell>
        <mxCell id="B7ZY8b4g0gwFOXaOrZe4-8" value="查询余额" style="ellipse;whiteSpace=wrap;html=1;" parent="1" vertex="1">
          <mxGeometry x="550" y="170" width="140" height="70" as="geometry" />
        </mxCell>
        <mxCell id="B7ZY8b4g0gwFOXaOrZe4-32" value="use" style="edgeStyle=orthogonalEdgeStyle;rounded=0;orthogonalLoop=1;jettySize=auto;html=1;exitX=1;exitY=0.5;exitDx=0;exitDy=0;entryX=0;entryY=0.5;entryDx=0;entryDy=0;" parent="1" source="B7ZY8b4g0gwFOXaOrZe4-9" target="B7ZY8b4g0gwFOXaOrZe4-8" edge="1">
          <mxGeometry relative="1" as="geometry" />
        </mxCell>
        <mxCell id="B7ZY8b4g0gwFOXaOrZe4-9" value="显示余额" style="ellipse;whiteSpace=wrap;html=1;" parent="1" vertex="1">
          <mxGeometry x="344" y="170" width="140" height="70" as="geometry" />
        </mxCell>
        <mxCell id="B7ZY8b4g0gwFOXaOrZe4-31" value="use" style="edgeStyle=orthogonalEdgeStyle;rounded=0;orthogonalLoop=1;jettySize=auto;html=1;exitX=1;exitY=0.5;exitDx=0;exitDy=0;entryX=0.5;entryY=1;entryDx=0;entryDy=0;" parent="1" source="B7ZY8b4g0gwFOXaOrZe4-11" target="B7ZY8b4g0gwFOXaOrZe4-9" edge="1">
          <mxGeometry relative="1" as="geometry">
            <mxPoint x="344" y="205" as="targetPoint" />
            <Array as="points">
              <mxPoint x="290" y="260" />
              <mxPoint x="414" y="260" />
            </Array>
          </mxGeometry>
        </mxCell>
        <mxCell id="B7ZY8b4g0gwFOXaOrZe4-34" value="" style="edgeStyle=orthogonalEdgeStyle;rounded=0;orthogonalLoop=1;jettySize=auto;html=1;" parent="1" source="B7ZY8b4g0gwFOXaOrZe4-11" target="B7ZY8b4g0gwFOXaOrZe4-33" edge="1">
          <mxGeometry relative="1" as="geometry" />
        </mxCell>
        <mxCell id="B7ZY8b4g0gwFOXaOrZe4-35" value="use" style="edgeLabel;html=1;align=center;verticalAlign=middle;resizable=0;points=[];" parent="B7ZY8b4g0gwFOXaOrZe4-34" vertex="1" connectable="0">
          <mxGeometry x="-0.0741" y="-2" relative="1" as="geometry">
            <mxPoint as="offset" />
          </mxGeometry>
        </mxCell>
        <mxCell id="B7ZY8b4g0gwFOXaOrZe4-11" value="扣费" style="ellipse;whiteSpace=wrap;html=1;" parent="1" vertex="1">
          <mxGeometry x="150" y="280" width="140" height="70" as="geometry" />
        </mxCell>
        <mxCell id="B7ZY8b4g0gwFOXaOrZe4-17" value="查询流水" style="ellipse;whiteSpace=wrap;html=1;" parent="1" vertex="1">
          <mxGeometry x="150" y="370" width="140" height="70" as="geometry" />
        </mxCell>
        <mxCell id="B7ZY8b4g0gwFOXaOrZe4-19" value="打印统计" style="ellipse;whiteSpace=wrap;html=1;" parent="1" vertex="1">
          <mxGeometry x="150" y="470" width="140" height="70" as="geometry" />
        </mxCell>
        <mxCell id="B7ZY8b4g0gwFOXaOrZe4-28" value="use" style="edgeStyle=orthogonalEdgeStyle;rounded=0;orthogonalLoop=1;jettySize=auto;html=1;" parent="1" source="B7ZY8b4g0gwFOXaOrZe4-22" target="B7ZY8b4g0gwFOXaOrZe4-9" edge="1">
          <mxGeometry relative="1" as="geometry" />
        </mxCell>
        <mxCell id="B7ZY8b4g0gwFOXaOrZe4-22" value="插卡" style="ellipse;whiteSpace=wrap;html=1;" parent="1" vertex="1">
          <mxGeometry x="150" y="170" width="140" height="70" as="geometry" />
        </mxCell>
        <mxCell id="B7ZY8b4g0gwFOXaOrZe4-33" value="计算交易额" style="ellipse;whiteSpace=wrap;html=1;" parent="1" vertex="1">
          <mxGeometry x="344" y="280" width="140" height="70" as="geometry" />
        </mxCell>
        <mxCell id="9xW25eaP4nGq-43hAQE9-1" value="充值缴费" style="ellipse;whiteSpace=wrap;html=1;" vertex="1" parent="1">
          <mxGeometry x="150" y="80" width="140" height="70" as="geometry" />
        </mxCell>
      </root>
    </mxGraphModel>
  </diagram>
</mxfile>
